<svg xmlns="http://www.w3.org/2000/svg" xmlns:xlink="http://www.w3.org/1999/xlink" viewBox="0 0 307.92 484.5"><defs><style>.cls-1,.cls-13,.cls-14{fill:none;}.cls-2{clip-path:url(#clip-path);}.cls-15,.cls-17,.cls-3,.cls-4,.cls-9{isolation:isolate;}.cls-3{opacity:0.54;}.cls-4{opacity:0.68;}.cls-5{fill:#907c45;}.cls-6{fill:#150a00;}.cls-7{fill:#130c42;}.cls-8{fill:#1a1a1a;}.cls-9{fill:#c8c8c8;opacity:0.28;}.cls-10{fill:#002e4a;}.cls-11{fill:#6a3813;}.cls-12{fill:#fff;}.cls-13,.cls-14{stroke:#002e4a;stroke-miterlimit:10;}.cls-13{stroke-width:2px;}.cls-14{stroke-width:3px;}.cls-15{opacity:0.85;}.cls-16{fill:#ffd694;}.cls-17{opacity:0.49;}</style><clipPath id="clip-path" transform="translate(-122.61 -68.64)"><rect class="cls-1" width="553.14" height="553.14"/></clipPath></defs><g id="Capa_2" data-name="Capa 2"><g id="Capa_1-2" data-name="Capa 1"><g class="cls-2"><path class="cls-3" d="M159.13,281c-1.8-2.5-.7-6,.5-7.9,2.4-3.6,7.9-4.9,13.8-3.1-1,7.6-4.7,12.9-8.8,13.3A6.19,6.19,0,0,1,159.13,281Z" transform="translate(-122.61 -68.64)"/><path class="cls-4" d="M227.33,171.84a27.46,27.46,0,0,0,7.1,10.7c11.4,10.5,27.8,6.6,29.6,6.2C251.73,183.14,239.53,177.54,227.33,171.84Z" transform="translate(-122.61 -68.64)"/><path class="cls-5" d="M165.33,231.84c13.5,2.1,23.7,3.6,33.3-1.9a32.45,32.45,0,0,0,9.1-7.9,87.94,87.94,0,0,0-20-4.7c-21.3-2.4-38.5,3.8-47.7,7.9A130.27,130.27,0,0,0,165.33,231.84Z" transform="translate(-122.61 -68.64)"/><path class="cls-6" d="M254.63,534.24c-6-2-9.1-3-12-2-5,1.9-5.9,9.9-6,11.3A19.71,19.71,0,0,0,238,553h47.6v-18.5a29.05,29.05,0,0,0-4.9-.8c-9.5-.6-13.5,4.4-21.1,2.4C257.73,535.64,258.23,535.44,254.63,534.24Z" transform="translate(-122.61 -68.64)"/><path class="cls-6" d="M320.23,534.14c-6.6-2.2-9.9-3.3-13-2.1-5.6,2.1-6.4,10.9-6.5,12.2a19.84,19.84,0,0,0,1.3,8.7c17.5.1,34.9.1,52.4.2v-1.6c.1-5.7,0-11.3-.2-16.7a22.67,22.67,0,0,0-5.6-1.1c-9.9-.9-14.5,4.8-22.9,2.6C323.63,535.74,324.13,535.44,320.23,534.14Z" transform="translate(-122.61 -68.64)"/><path class="cls-7" d="M355.73,348.44c-1.3,131.3-1.6,184.7-1.3,185.7,0,0,.3.8,0,1s-.7,0-.8,0c-2.1-.8-25.4,7.6-29.6,2.6-.8-.9-1.8-3.4-3.4-3.3-.5,0-1.1.3-1.4,0s.1-1.2.2-1.4c3.2-6.5.9-34.4.9-34.4-.9-11.4-1-35.2-1.1-82.9,0,0-.1-21.6-10.4-32.4-.7-.8-2.8-2.9-5.4-2.8-2.3.1-4,2-4.6,2.6-9.4,10.4-10.4,62.8-10.4,62.8-.2,10.2-.9,24.4-2.3,52.7,0,0-1.6,33.4-.1,37.3.1.2.5,1.1.1,1.6s-1.6.1-1.9,0c-4.4-1.3-27.5-.1-30.7.6-.2,0-1,.3-1.4-.1s0-1.3,0-1.3c.4-1.2,1.6-52.8,4-184.8C289.33,350.74,322.53,349.64,355.73,348.44Z" transform="translate(-122.61 -68.64)"/><path class="cls-8" d="M314.73,68.64l115.8,48.7-50.8,126.4-117.9-48.9Q288.38,131.84,314.73,68.64Z" transform="translate(-122.61 -68.64)"/><path class="cls-9" d="M352.73,86.84a2.77,2.77,0,0,1-.1.9,7.49,7.49,0,0,1-.5,1.6c-.4,1-21.8,52.2-51,122.1l-39.3-16.5c8.6-21,17.4-42,26.1-62.9,8.8-21.1,17.7-42.3,26.7-63.3L350.83,84A2.44,2.44,0,0,1,352.73,86.84Z" transform="translate(-122.61 -68.64)"/><path class="cls-10" d="M259.13,223.34c-7.7,5.6,1.9,18.1-6.5,30.8-9.8,14.8-26.7,18-37.6,20a81.05,81.05,0,0,1-41.4-3.4c-.6,6.5-1.2,13.1-1.7,19.6,4.9,2.5,33.2,16.6,64.1,4.7,19.5-7.5,30.4-21.6,34.6-27.2,0,0,6.8-9,14.8-35.8a4.27,4.27,0,0,0,.1-2.4C283.93,222.94,266.73,217.74,259.13,223.34Z" transform="translate(-122.61 -68.64)"/><g id="Capa_2-2" data-name="Capa 2"><path class="cls-10" d="M350.33,234.74a171,171,0,0,1,.8,36.5c-2.9,31.2,12.9,62.8,9,78.2-.4,1.5-1.4,5.8-4.7,7.1-3.1,1.3-6.6-.5-7.5-1-14.9-7.2-73.4,8.2-87.5-.8-1-.7-4-2.5-5.1-6a11.17,11.17,0,0,1,.8-7.8c3.9-9.1,3.8-33.6,3.7-47.8-.1-18.4-2.9-51.8-3-53.5v-1.3c.1-3.1.7-10,5.6-14.1,3.9-3.3,8.9-3.4,11.1-3.5,25.4-.8,32.5-12.6,51.3-8.5,5.3,1.1,15.3,2.9,21.1,10.9A24.74,24.74,0,0,1,350.33,234.74Z" transform="translate(-122.61 -68.64)"/></g><path class="cls-11" d="M205.33,122.54c.8,8.7,4.2,11.9,12.4,29s6.4,17.3,10,21.2c9.1,10,23.1,10.9,35,11.6,14,.9,36,2.3,47.4-11.9,5.7-7,6.3-14.9,6.9-24.5.7-11.1,2.4-39.1-15.4-56.4-25.2-24.5-81.8-12.6-93.2,11.9A39.14,39.14,0,0,0,205.33,122.54Z" transform="translate(-122.61 -68.64)"/><path class="cls-12" d="M219.43,144.44c.2,3.7,2.1,31.8,22.2,41.4,8.4,4,17.7,3.7,21.1,3.6a54.88,54.88,0,0,0,16.5-3.2c.5,8.2,1,16.5,1.5,24.7-.5,2.9-1.6,5.9-4.2,7.7-2.8,1.9-5.4,1-5.7,1.9-.8,2.3,12.8,15.1,28.5,12.5,10.4-1.8,19.1-10,22.8-21a25.11,25.11,0,0,1-12.5-5.4c-12.4-10.5-9.9-32.2-9.2-37.7a14.93,14.93,0,0,0,.2-1.7c1.8-13.1,6-13.6,5.5-22.9-1.1-16.8-15.9-27.9-20.4-31.5-5.5-4.3-17.7-13.8-28-10.1-6.5,2.3-7.4,8.1-16.8,11.3-6.8,2.3-9,.2-13,2.3C218.23,121.64,219.23,140.64,219.43,144.44Z" transform="translate(-122.61 -68.64)"/><circle class="cls-13" cx="152.42" cy="80.2" r="13.6"/><circle class="cls-13" cx="106.42" cy="82.5" r="13.7"/><path class="cls-14" d="M288.53,146.44l17.6-.3" transform="translate(-122.61 -68.64)"/><path class="cls-14" d="M242.73,150.64a21.19,21.19,0,0,1,18.7-.3" transform="translate(-122.61 -68.64)"/><path class="cls-12" d="M159.43,280.34c1.3,2.2,4.2,2.2,4.7,2.2a8.63,8.63,0,0,0,4.5-1.5,16.3,16.3,0,0,0,4.4-3.4c.2-2.3.4-4.7.6-7a16.34,16.34,0,0,0-6.4.1c-1.3.3-7.1,1.6-8.2,5.7A5.15,5.15,0,0,0,159.43,280.34Z" transform="translate(-122.61 -68.64)"/><path class="cls-8" d="M341.23,200.24c-4.2-7.1-31.7-4.9-38.9,8.2-5.9,10.8,1.4,30-5,32.8-1.2.5-3.4.7-3.9,2.1s1,3.7,2.9,4.6c2.9,1.5,6.7-.2,8.9-2.1,3-2.7,3.6-6.5,4.3-11,1-7.3-.4-9.3.4-12.1,1.2-4.1,6.9-8.8,28.2-10.7C340.73,207.94,343,203.24,341.23,200.24Z" transform="translate(-122.61 -68.64)"/><path class="cls-8" d="M280.13,200.54a29.43,29.43,0,0,0-8.2,9.5c-5.1,9.3-4.2,20.2-6.7,20.4-1.3.1-2.2-3.1-4.2-2.9-1.2.1-2,1.3-2.4,2.1a5.25,5.25,0,0,0,.7,4.6c2,3.4,7.4,5.9,10.2,4.2,4.1-2.5-.5-11.8,5-17.2a22.66,22.66,0,0,0,3.6-3.8,17.47,17.47,0,0,0,2.6-6.4Q280.58,205.79,280.13,200.54Z" transform="translate(-122.61 -68.64)"/><path class="cls-15" d="M313,118.24c1-2.6,14.1,2.7,34.9.1,11.2-1.4,14.6-2,14.6-2,9.8-1.5,14.4-2.6,19.9-.5a15.26,15.26,0,0,1,6.4,4.3c3.9,4.6,3.2,10.3,3,11.8-.4,2.6-1.3,6.2-4.3,8.8-6.8,6-19.5,2.7-32.4-.7a108.07,108.07,0,0,1-22.7-8.7C328.43,129.44,311.93,121.24,313,118.24Z" transform="translate(-122.61 -68.64)"/><path class="cls-8" d="M389.33,137.54c-6.1,7.3-23.7,2.1-54-7.3-14.6-4.5-26.4-8.9-34.6-12.1a5.58,5.58,0,0,1-4,.9c-1.4-.2-3.4-1.2-3.3-2.3,0-.9,1.3-1.5,2.2-1.7a3.39,3.39,0,0,1,2.5.5,2.22,2.22,0,0,1-1.8-2.2c.1-1,.9-1.9,1.6-1.8.9.1,1.4,1.7,1.6,1.6s-.9-2.6-.2-3.3c.5-.4,1.8.1,2.5.9a3.15,3.15,0,0,1,.7,2.1,95.65,95.65,0,0,0,20.5,4.8c34,4.3,53.9-10.9,64.1-1C392.63,122,393.43,132.64,389.33,137.54Z" transform="translate(-122.61 -68.64)"/><path class="cls-16" d="M160.83,273.74c-6.6-8.7-10.8-14.1-17.4-14.8-9.8-1-17.6,9.3-19,11.2-4.7-15.4-.1-31.9,11.6-41.9,13.5-11.6,34.2-12.3,49.5-1.1,9.3-7.2,15.3-7.4,19-6.4,13.2,3.5,18.3,25.5,25.3,65.2,9.9,55.6,15.1,96.9,17.7,118,7.3,59.1,7.3,72.7,7.1,80.6-.3,11-1,12.9-.4,20.3.8,8.3,3,20.2,1.5,32.7a12.94,12.94,0,0,1-2.6,6.8c-2.7,3.3-7.2,3.6-13.2,3.9-10.9.5-19.1.3-19.8.2-19.8-.7-19.5-1.1-23-.6-10.8,1.4-7.1.4-12.9.8-3,.2-4.7.3-6.8-.6-.5-.2-5.1-2.2-6.3-7.1a10.64,10.64,0,0,1,5.8-12.1,10.11,10.11,0,0,1,7,0l13.4.9a22.18,22.18,0,0,1,2-5.8,18.87,18.87,0,0,1,1-1.7c11.2-20.3,1.6-46.6-1-68.7-1.8-15.1.3-9-1.6-38.1-2.8-41.8-8-67.7-9.3-73.8a232.45,232.45,0,0,0-13.9-44.9A111.47,111.47,0,0,0,160.83,273.74Z" transform="translate(-122.61 -68.64)"/><path class="cls-17" d="M321.53,290.74c-9.1,7-20.7,9.2-26.2,10.3a86.24,86.24,0,0,1-35.4-.4,9.19,9.19,0,0,0,0-1.7c-.2-1.9-1.2-7.7-21.5-19.8-3.8-2.2-10-5.8-9.6-6.5.1-.2.4-.1,4.5.4,6.3.7,6.5.6,11.6,1.2,3.2.4,3.9.5,5.4.7l1.7.2c1.5.2,9.1-.1,19.6-.8,1.9-.3,17.8-2.8,25.8-10.3a44.46,44.46,0,0,0,3.9-4.2c3.6-5,3.5-9.4,10.1-15.8a44.72,44.72,0,0,1,22.2-11.2c2.3-.4,4.6-.9,6.9-1.3C346,254.44,338.53,277.64,321.53,290.74Z" transform="translate(-122.61 -68.64)"/><path class="cls-10" d="M314.23,225.44c-7.7,5.6.7,17.3-6.5,30.8-8.1,15-28.4,18.6-38,20.4a78.55,78.55,0,0,1-40.9-3.8c-.2,2.3-.7,7.5-.9,9.8-.3,3.3-.6,6.5-.9,9.8,46.4,15.3,89.7,3.9,104.1-19.8,7.4-12.3,9-31.1,9.4-38.5a5.34,5.34,0,0,0,.1-2.4C339,225.14,321.83,219.94,314.23,225.44Z" transform="translate(-122.61 -68.64)"/><path class="cls-12" d="M232.33,294.74c-5.8,6.1-14.7,6-18.8,1.5s-3.2-13.1.4-15.6c2-1.4,3.2-.5,6.9-2.1,5.2-2.3,6.2-6,7.9-5.7S232.13,277,232.33,294.74Z" transform="translate(-122.61 -68.64)"/><path class="cls-5" d="M243.33,530.54s-1.4.1-9-.1c-.9,0-2.2-.2-4.2-.4-1.5-.1-2.3-.1-4.9-.2-3.6-.1-3.1-.1-5.3-.2-3-.1-3.7-.1-7.6-.2s-3.8-.2-5.1-.2a79.53,79.53,0,0,0-9.9.5c.1-.6.3-1.3.4-1.9,8.2.5,14.9.7,19.7.7,8.7.1,17.5,2.2,26,.6,1.9-.4,5.8-1.2,8.2.9,1.7,1.6,1.9,4.1,1.9,5.8.4,1.8.7,2.7,1.1,2.7s1.1-2.1,1.6-6.2a23.68,23.68,0,0,1-.2,4.1c0,.2-.1.8-.2,1.7s-.4,2-.6,2.8c-.4.4-3.6,3.3-5.5,2.4-2.6-1.3-1.7-9.1.4-9.7.8-.2,1.7.5,2.3,1.2a5.62,5.62,0,0,0-1.7-3.2C249,529.94,246.63,530.34,243.33,530.54Z" transform="translate(-122.61 -68.64)"/></g></g></g></svg>