<svg xmlns="http://www.w3.org/2000/svg" xmlns:xlink="http://www.w3.org/1999/xlink" viewBox="0 0 199.65 475.07"><defs><style>.cls-1,.cls-8,.cls-9{fill:none;}.cls-2{clip-path:url(#clip-path);}.cls-3{fill:#150a00;}.cls-4{fill:#130c42;}.cls-5{fill:#002e4a;}.cls-6{fill:#6a3813;}.cls-7{fill:#fff;}.cls-8,.cls-9{stroke:#002e4a;stroke-miterlimit:10;}.cls-8{stroke-width:2px;}.cls-9{stroke-width:3px;}.cls-10{isolation:isolate;opacity:0.49;}.cls-11{fill:#141414;}.cls-12{fill:#907c45;}.cls-13{fill:#b5bfb8;}</style><clipPath id="clip-path" transform="translate(-176.74 -78.07)"><rect class="cls-1" width="553.14" height="553.14"/></clipPath></defs><g id="Capa_2" data-name="Capa 2"><g id="Capa_1-2" data-name="Capa 1"><g class="cls-2"><path class="cls-3" d="M270.27,534.24c-6-2-9.1-3-12-2-5,1.9-5.9,9.9-6,11.3a19.71,19.71,0,0,0,1.4,9.5h47.6v-18.5a29.05,29.05,0,0,0-4.9-.8c-9.5-.6-13.5,4.4-21.1,2.4C273.37,535.64,273.87,535.44,270.27,534.24Z" transform="translate(-176.74 -78.07)"/><path class="cls-3" d="M335.87,534.14c-6.6-2.2-9.9-3.3-13-2.1-5.6,2.1-6.4,10.9-6.5,12.2a19.84,19.84,0,0,0,1.3,8.7c17.5.1,34.9.1,52.4.2v-1.6c.1-5.7,0-11.3-.2-16.7a22.67,22.67,0,0,0-5.6-1.1c-9.9-.9-14.5,4.8-22.9,2.6C339.27,535.74,339.77,535.44,335.87,534.14Z" transform="translate(-176.74 -78.07)"/><path class="cls-4" d="M371.37,348.44c-1.3,131.3-1.6,184.7-1.3,185.7,0,0,.3.8,0,1s-.7,0-.8,0c-2.1-.8-25.4,7.6-29.6,2.6-.8-.9-1.8-3.4-3.4-3.3-.5,0-1.1.3-1.4,0s.1-1.2.2-1.4c3.2-6.5.9-34.4.9-34.4-.9-11.4-1-35.2-1.1-82.9,0,0-.1-21.6-10.4-32.4-.7-.8-2.8-2.9-5.4-2.8-2.3.1-4,2-4.6,2.6-9.4,10.4-10.4,62.8-10.4,62.8-.2,10.2-.9,24.4-2.3,52.7,0,0-1.6,33.4-.1,37.3.1.2.5,1.1.1,1.6s-1.6.1-1.9,0c-4.4-1.3-27.5-.1-30.7.6-.2,0-1,.3-1.4-.1s0-1.3,0-1.3c.4-1.2,1.6-52.8,4-184.8C305,350.74,338.17,349.64,371.37,348.44Z" transform="translate(-176.74 -78.07)"/><path class="cls-5" d="M274.77,223.34c-7.7,5.6,1.9,18.1-6.5,30.8-9.8,14.8-26.7,18-37.6,20a81.05,81.05,0,0,1-41.4-3.4c-.6,6.5-1.2,13.1-1.7,19.6,4.9,2.5,33.2,16.6,64.1,4.7,19.5-7.5,30.4-21.6,34.6-27.2,0,0,6.8-9,14.8-35.8a4.27,4.27,0,0,0,.1-2.4C299.57,222.94,282.37,217.74,274.77,223.34Z" transform="translate(-176.74 -78.07)"/><g id="Capa_2-2" data-name="Capa 2"><path class="cls-5" d="M366,234.74a171,171,0,0,1,.8,36.5c-2.9,31.2,12.9,62.8,9,78.2-.4,1.5-1.4,5.8-4.7,7.1-3.1,1.3-6.6-.5-7.5-1-14.9-7.2-73.4,8.2-87.5-.8-1-.7-4-2.5-5.1-6a11.17,11.17,0,0,1,.8-7.8c3.9-9.1,3.8-33.6,3.7-47.8-.1-18.4-2.9-51.8-3-53.5v-1.3c.1-3.1.7-10,5.6-14.1,3.9-3.3,8.9-3.4,11.1-3.5,25.4-.8,32.5-12.6,51.3-8.5,5.3,1.1,15.3,2.9,21.1,10.9A24.74,24.74,0,0,1,366,234.74Z" transform="translate(-176.74 -78.07)"/></g><path class="cls-6" d="M221,122.54c.8,8.7,4.2,11.9,12.4,29s6.4,17.3,10,21.2c9.1,10,23.1,10.9,35,11.6,14,.9,36,2.3,47.4-11.9,5.7-7,6.3-14.9,6.9-24.5.7-11.1,2.4-39.1-15.4-56.4-25.2-24.5-81.8-12.6-93.2,11.9A39.14,39.14,0,0,0,221,122.54Z" transform="translate(-176.74 -78.07)"/><path class="cls-7" d="M235.07,144.44c.2,3.7,2.1,31.8,22.2,41.4,8.4,4,17.7,3.7,21.1,3.6a54.88,54.88,0,0,0,16.5-3.2c.5,8.2,1,16.5,1.5,24.7-.5,2.9-1.6,5.9-4.2,7.7-2.8,1.9-5.4,1-5.7,1.9-.8,2.3,12.8,15.1,28.5,12.5,10.4-1.8,19.1-10,22.8-21a25.11,25.11,0,0,1-12.5-5.4c-12.4-10.5-9.9-32.2-9.2-37.7a14.93,14.93,0,0,0,.2-1.7c1.8-13.1,6-13.6,5.5-22.9-1.1-16.8-15.9-27.9-20.4-31.5-5.5-4.3-17.7-13.8-28-10.1-6.5,2.3-7.4,8.1-16.8,11.3-6.8,2.3-9,.2-13,2.3C233.87,121.64,234.87,140.64,235.07,144.44Z" transform="translate(-176.74 -78.07)"/><circle class="cls-8" cx="113.93" cy="70.77" r="13.6"/><circle class="cls-8" cx="67.93" cy="73.07" r="13.7"/><path class="cls-9" d="M304.17,146.44l17.6-.3" transform="translate(-176.74 -78.07)"/><path class="cls-9" d="M258.37,150.64a21.19,21.19,0,0,1,18.7-.3" transform="translate(-176.74 -78.07)"/><path class="cls-10" d="M337.17,290.74c-7.46,4.45-16.88,5.42-27,6.47A125.75,125.75,0,0,1,275.51,296c0-.94,0-1.88,0-2.82l-13-3.33-2.58,1.45c-18.16-8.19-22.34-11.55-21.89-12.94s5.53-4.26,6.49-5.68l0-.05c.61-.75,2.89,1.08,4.47.45.81-.33,1-1.15,1.48-2a11.76,11.76,0,0,1,5-4.86,59.83,59.83,0,0,0,6.42,3.43c5.95,2.75,14.28,6.45,25.41,4.76l.53-.09c3.36-.55,17.78-3.19,25.27-10.21a44.46,44.46,0,0,0,3.9-4.2c3.6-5,3.5-9.4,10.1-15.8a44.72,44.72,0,0,1,22.2-11.2c2.3-.4,4.6-.9,6.9-1.3C356.55,235.46,360.08,277.08,337.17,290.74Z" transform="translate(-176.74 -78.07)"/><path class="cls-5" d="M329.87,225.44c-7.7,5.6.7,17.3-6.5,30.8-7.39,13.85-25.2,19.79-38,20.4-23.72,1.12-38.88-15.34-40.92-17.63a32.3,32.3,0,0,1-1.8,12.47,31.79,31.79,0,0,1-3.67,7.25c8.93,5.71,28.09,16.07,53.47,15.45,8.89-.22,42.15-1,54.32-21.54,6.22-10.48,9.4-21.92,9.4-38.5a5.34,5.34,0,0,0,.1-2.4C354.67,225.14,337.47,219.94,329.87,225.44Z" transform="translate(-176.74 -78.07)"/><path class="cls-7" d="M251.64,275.7c-5.8,6.1-14.7,6-18.8,1.5-3.82-4.2-2.37-11.54.4-15.6a16,16,0,0,1,4.38-4.14c.95-.66,6.91-4.85,10.42-3.66C252.08,255.16,254.19,264.1,251.64,275.7Z" transform="translate(-176.74 -78.07)"/><path class="cls-11" d="M226.34,261.39l28-4.1,1,4.64-29.18,3.38-5.71-1.68Z" transform="translate(-176.74 -78.07)"/><path class="cls-7" d="M233.11,272.82c-.65-.16-1.27-.36-1.25-.54,0-.46,4.5.58,6.41-1.42s1.37-7.38-1.07-8.2c-1.56-.52-3.8.84-5.42,3.15" transform="translate(-176.74 -78.07)"/><path class="cls-12" d="M176.85,236.44c.35-.76,1.44-.94,1.73-1L220.1,227a3,3,0,0,1,2.62.49,2.9,2.9,0,0,1,1,1.85c5,22.29,18.8,83.19,18.92,84.78a1.76,1.76,0,0,1-.26,1.11,1.55,1.55,0,0,1-.75.52,2.42,2.42,0,0,1-.75.14c-.65,0-19.39,1.15-45.4,2.74a3.22,3.22,0,0,1-2.38-.49,3.28,3.28,0,0,1-1.07-2.14c-.51-3.46-13.76-75-15.09-78.12A1.92,1.92,0,0,1,176.85,236.44Z" transform="translate(-176.74 -78.07)"/><path class="cls-7" d="M181.48,274.31c-.8,2.82.3,6.54,3.12,7.93.18.09,2.68,1.27,4.37.09,2.15-1.51,1.36-5.73.17-8.11-.38-.76-2-4-4.24-3.79C183,270.58,181.85,273,181.48,274.31Z" transform="translate(-176.74 -78.07)"/><path class="cls-13" d="M192.83,235.7c-.24-.41.08-.75-.18-1.9a7.36,7.36,0,0,0-.71-1.79,17.89,17.89,0,0,1-1.19-2.67c.12-2.49,12.33-4.94,13.73-2.14.39.8-.25,1.68.35,3.79.4,1.4.85,1.57.71,2.15-.18.81-1.22,1.29-6.77,2.38C195.05,236.25,193.29,236.47,192.83,235.7Z" transform="translate(-176.74 -78.07)"/></g></g></g></svg>