<svg xmlns="http://www.w3.org/2000/svg" xmlns:xlink="http://www.w3.org/1999/xlink" viewBox="0 0 272.21 408.1"><defs><style>.cls-1,.cls-10,.cls-11{fill:none;}.cls-2{clip-path:url(#clip-path);}.cls-14,.cls-16,.cls-3,.cls-5{isolation:isolate;}.cls-3{opacity:0.68;}.cls-4{fill:#1a1a1a;}.cls-5{fill:#c8c8c8;opacity:0.28;}.cls-6{fill:#002e4a;}.cls-7{fill:#040015;}.cls-8{fill:#6a3813;}.cls-9{fill:#fff;}.cls-10,.cls-11{stroke:#002e4a;stroke-miterlimit:10;}.cls-10{stroke-width:2px;}.cls-11{stroke-width:3px;}.cls-12{fill:#3b3139;}.cls-13{fill:#130c42;}.cls-14{opacity:0.85;}.cls-15{fill:#150a00;}.cls-16{opacity:0.49;}.cls-17{fill:#ff4f0a;}.cls-18{fill:#df9600;}.cls-19{fill:#ffdc1f;}</style><clipPath id="clip-path" transform="translate(-105.03 -145.03)"><rect class="cls-1" width="553.14" height="553.14"/></clipPath></defs><g id="Capa_2" data-name="Capa 2"><g id="Capa_1-2" data-name="Capa 1"><g class="cls-2"><path class="cls-3" d="M269.82,289.27a27.46,27.46,0,0,1-7.1,10.7c-11.4,10.5-27.8,6.6-29.6,6.2C245.42,300.57,257.62,294.87,269.82,289.27Z" transform="translate(-105.03 -145.03)"/><path class="cls-4" d="M229.53,145l-115.8,48.7,50.8,126.4,117.9-48.9Q255.88,208.08,229.53,145Z" transform="translate(-105.03 -145.03)"/><path class="cls-5" d="M191.43,163.13a2.77,2.77,0,0,0,.1.9,7.49,7.49,0,0,0,.5,1.6c.4,1,21.8,52.2,51,122.1l39.3-16.5c-8.6-21-17.4-42-26.1-62.9-8.8-21.1-17.7-42.3-26.7-63.3l-36.2,15.3A2.62,2.62,0,0,0,191.43,163.13Z" transform="translate(-105.03 -145.03)"/><path class="cls-6" d="M281.83,300.63c3.36,2,5.13,5.81,6.76,15.78,3.87,23.56-2.13,26,1.43,35.64,5.75,15.57,28.72,29.18,43.24,40.63a6.48,6.48,0,0,1,2.38,3.33,6.05,6.05,0,0,1-.47,4.28c-.75.09-1.91.2-3.33.24-7,.17-18.25-1.82-42.42-24.12a264.6,264.6,0,0,1-20.79-21.51c1.48-24.65-2.67-35.72-7-41.23-.79-1-2.77-3.32-2.27-5.87C260.56,301.69,274.24,296.07,281.83,300.63Z" transform="translate(-105.03 -145.03)"/><g id="Capa_2-2" data-name="Capa 2"><path class="cls-6" d="M193.93,311c-3,21.8,4.4,89.7,4.9,94.4,20.6-1,41.2-1.9,61.8-2.9a152.11,152.11,0,0,0,7.2-20.6c6.2-23,1.8-28,8.5-42.1,5.3-11.1,10.9-13.9,11.1-23.8,0-1.7.2-10.5-5.6-15.4-3.9-3.3-8.9-3.4-11.1-3.5-25.4-.8-32.5-12.6-51.3-8.5-5.3,1.1-15.3,2.9-21.1,10.9A24.42,24.42,0,0,0,193.93,311Z" transform="translate(-105.03 -145.03)"/></g><path class="cls-7" d="M280.73,413.73c-2.5-.8-5,19.8-20.8,28.9-13.1,7.6-34.8,6.9-48.7-6.9-13.1-13-12.1-30.5-11.9-33.3,15.8-2.1,31.6-4.1,47.3-6.2,4.4-3.9,19.8-16.5,41.5-15.8,5,.2,14.5.5,20.9,5.5,14.3,11.2,12.6,45.2-7.1,82.8,7.7-6.1,16.4-6.1,19.9-2.2,2.8,3.2,2,8.6.7,11.9-1.5,3.7-4.4,6.8-12.9,11.1-11.7,5.9-24.6,12.5-30.4,7.5-4-3.4-2.8-10.7-2-16.1C282,449.43,284.23,414.83,280.73,413.73Z" transform="translate(-105.03 -145.03)"/><path class="cls-8" d="M338.93,198.83c-.8,8.7-4.2,11.9-12.4,29s-6.4,17.3-10,21.2c-9.2,10-23.1,10.9-35,11.6-14,.9-36,2.3-47.4-11.9-5.7-7-6.3-14.9-6.9-24.5-.7-11.1-2.4-39.1,15.4-56.4,25.2-24.5,81.8-12.6,93.2,11.9A39.33,39.33,0,0,1,338.93,198.83Z" transform="translate(-105.03 -145.03)"/><path class="cls-9" d="M324.83,220.73c-.2,3.7-2.1,31.8-22.2,41.4-8.4,4-17.7,3.7-21.1,3.6a54.88,54.88,0,0,1-16.5-3.2c-.5,8.2-1,16.5-1.5,24.7.5,2.8,1.6,5.9,4.2,7.7,2.8,1.9,5.4,1,5.7,1.9.8,2.3-12.8,15.1-28.5,12.5-10.5-1.8-19.1-10-22.8-21a24.4,24.4,0,0,0,12.5-5.5c12.4-10.5,9.9-32.2,9.2-37.7a14.93,14.93,0,0,1-.2-1.7c-1.8-13.1-6-13.6-5.5-22.9,1.1-16.8,15.9-27.9,20.4-31.5,5.5-4.3,17.7-13.8,28-10.1,6.5,2.3,7.4,8.1,16.8,11.3,6.8,2.3,9,.2,13,2.3C326,197.93,325,216.93,324.83,220.73Z" transform="translate(-105.03 -145.03)"/><circle class="cls-10" cx="164.21" cy="80.2" r="13.6"/><circle class="cls-10" cx="210.21" cy="82.5" r="13.7"/><path class="cls-11" d="M255.73,222.73l-17.6-.3" transform="translate(-105.03 -145.03)"/><path class="cls-11" d="M301.53,226.93a21.19,21.19,0,0,0-18.7-.3" transform="translate(-105.03 -145.03)"/><path class="cls-12" d="M269,465.13a79,79,0,0,1,26.51-13.43A76.91,76.91,0,0,1,315,448.82l3.52,16.9a44.78,44.78,0,1,0,13.91-2.23c-1.41,0-2.76.06-4.11.18l-12-57.91a43.33,43.33,0,0,0,4.34-.32c2.1-.25,3.71-.55,4.87-.8,3.24-.67,9.63-2.13,17.87-4.17,2.91-.31,5-2.31,5.17-4.46s-1.62-3.9-3.21-4.63c-2.44-1.13-4.74.07-8.91,1.6-4.78,1.75-14.38,5.27-21,4.63a28.21,28.21,0,0,0-5.65-.05,37.15,37.15,0,0,0-4.65.87c-6.08,1.07-7.89-1.12-12.56-1.12a5,5,0,1,0,0,10.09h13.85l6.51,31.39a87.06,87.06,0,0,0-52.1,19.89V455a5,5,0,0,0,4.52-5c-.06-3.28-.12-6.51-.24-9.79l-37.66,2.64c.17,2.4.29,4.75.47,7.15a5,5,0,0,0,5,5.05h17.84v12a6.29,6.29,0,0,0,.12,1.11,87.17,87.17,0,0,0-17.78,31.1,26.76,26.76,0,1,0,10,1.58,81.65,81.65,0,0,1,14.14-24.76c2-2.34,4-4.46,5.93-6.33,1.64,3.28,3.22,6.57,4.87,9.85-1.06,1.06-2.12,2.06-3.17,3.11.59.53,1.11,1.06,1.7,1.59,3.58-2.41,7.16-4.81,10.8-7.22-.3-.35-.53-.7-.83-1a10.42,10.42,0,0,1-2.17.82,8.91,8.91,0,0,1-2.34.3c-1.65-3.64-3.29-7.22-4.93-10.86A10.6,10.6,0,0,0,269,465.13Zm-35,79.09a18,18,0,1,1,17.95-18A17.95,17.95,0,0,1,234,544.22Zm98.45-1.41a34.44,34.44,0,1,1,34.44-34.44A34.45,34.45,0,0,1,332.42,542.81Z" transform="translate(-105.03 -145.03)"/><path class="cls-13" d="M199.33,402.53c-.6,4-2.9,21.9,8.4,34.4,16.9,18.5,52.9,12.7,66.2-5.2a31.89,31.89,0,0,0,5.4-12.1,124.59,124.59,0,0,1-3.2,17.5c-6.5,25.1-17.4,35.5-13.9,51.7.7,3.2,1.8,7.8,5.6,10.8,6.5,5,16.2,1.9,27.1-1.5,9.5-3,16.4-5.2,17.6-10.7a10.3,10.3,0,0,0-4.5-10.5c-2.1-1.2-4.1-.8-12.8.7-5.5,1-9.6,1.7-11,2a203.24,203.24,0,0,0,13.7-17.8c11.6-17.3,19.6-29.1,19.3-45-.1-5,0-17.2-8.9-27.3-1.3-1.4-9.9-10.9-23.2-11.6-10-.5-17.8,4.3-26.2,9.3a91,91,0,0,0-9.5,6.8C232.73,396.73,216,399.63,199.33,402.53Z" transform="translate(-105.03 -145.03)"/><path class="cls-9" d="M337.56,400.46c-1.3,2.2-4.2,2.2-4.7,2.2a8.63,8.63,0,0,1-4.5-1.5,16.3,16.3,0,0,1-4.4-3.4c-.2-2.3-.4-4.7-.6-7a16.34,16.34,0,0,1,6.4.1c1.3.3,7.1,1.6,8.2,5.7A5.15,5.15,0,0,1,337.56,400.46Z" transform="translate(-105.03 -145.03)"/><path class="cls-4" d="M203,276.53c4.2-7.1,31.7-4.9,38.9,8.2,5.9,10.8-1.4,30,5,32.8,1.2.5,3.4.7,3.9,2.1s-1,3.7-2.9,4.6c-2.9,1.5-6.7-.2-8.9-2.1-3-2.7-3.6-6.5-4.3-11-1-7.3.4-9.3-.4-12.1-1.2-4.1-6.9-8.8-28.2-10.7C203.53,284.23,201.23,279.53,203,276.53Z" transform="translate(-105.03 -145.03)"/><path class="cls-4" d="M264,276.83a29.43,29.43,0,0,1,8.2,9.5c5.1,9.3,4.2,20.2,6.7,20.4,1.3.1,2.2-3.1,4.2-2.9,1.2.1,2,1.3,2.4,2.1a5.25,5.25,0,0,1-.7,4.6c-2,3.4-7.4,5.9-10.2,4.2-4.1-2.5.5-11.8-5-17.2a22.66,22.66,0,0,1-3.6-3.8,17.47,17.47,0,0,1-2.6-6.4Z" transform="translate(-105.03 -145.03)"/><path class="cls-14" d="M231.23,194.63c-1-2.6-14.1,2.7-34.9.1-11.2-1.4-14.6-2-14.6-2-9.8-1.5-14.4-2.6-19.9-.5a15.26,15.26,0,0,0-6.4,4.3c-3.9,4.6-3.2,10.3-3,11.8.4,2.6,1.3,6.2,4.3,8.8,6.8,6,19.5,2.7,32.4-.7a108.07,108.07,0,0,0,22.7-8.7C215.83,205.83,232.33,197.63,231.23,194.63Z" transform="translate(-105.03 -145.03)"/><path class="cls-4" d="M154.93,213.83c6.1,7.3,23.7,2.1,54-7.3,14.6-4.5,26.4-8.9,34.6-12.1a5.58,5.58,0,0,0,4,.9c1.4-.2,3.4-1.2,3.3-2.3,0-.9-1.3-1.5-2.2-1.7a3.39,3.39,0,0,0-2.5.5,2.22,2.22,0,0,0,1.8-2.2c-.1-1-.9-1.9-1.6-1.8-.9.1-1.4,1.7-1.6,1.6s.9-2.6.2-3.3c-.5-.4-1.8.1-2.5.9a3.15,3.15,0,0,0-.7,2.1,95.65,95.65,0,0,1-20.5,4.8c-34,4.3-53.9-10.9-64.1-1C151.63,198.33,150.83,208.93,154.93,213.83Z" transform="translate(-105.03 -145.03)"/><path class="cls-15" d="M313.63,484.63c-.3,3.6-2.9,5.9-4.6,7.5-2.5,2.2-4.6,3-16,6.4-8.1,2.4-9.6,2.8-11.9,3-4.7.5-8.4.8-11.9-1.3s-4.7-5.4-5.8-8a25.48,25.48,0,0,1-1.6-13.2,85.18,85.18,0,0,0,14.6.9,40.74,40.74,0,0,0,6.8-.7,37.64,37.64,0,0,0,7-2.3c4-1.6,12.8-5.1,18.7-1.5C311.63,477.33,313.93,481,313.63,484.63Z" transform="translate(-105.03 -145.03)"/><path class="cls-16" d="M222.43,366.93c17.6,13.5,38.2,10.6,42.3,10,41.93,8.08,52.18,8.18,52.67,6.37.31-1.18-3.56-2.74-20.73-11.29-26.89-13.39-38.82-20.24-50-31.68-1.74-1.77-3.09-3.28-3.9-4.2-3.6-5-3.5-9.4-10.1-15.8a44.72,44.72,0,0,0-22.2-11.2c-2.3-.4-4.6-.9-6.9-1.3C197.83,330.63,205.43,353.83,222.43,366.93Z" transform="translate(-105.03 -145.03)"/><path class="cls-16" d="M272.73,359.54c.31-.07-2.66-9.38-3.62-23.23a122.89,122.89,0,0,1-.24-12.66l-1.9,2.86a100.84,100.84,0,0,0,.89,13.36C269.36,351.05,272.43,359.62,272.73,359.54Z" transform="translate(-105.03 -145.03)"/><path class="cls-6" d="M229.63,301.63c7.42,5.47.48,16.42,6.5,30.8,3.08,7.35,8.55,13.12,37.61,29,12.36,6.75,28.56,15.11,48.12,23.88q-1.67,3.48-3.57,7.13c-1.29,2.47-2.59,4.84-3.88,7.11-28-12.13-49.06-21-61.63-26.2-25.14-10.48-33.94-14.37-40.05-24.53-7.4-12.3-9-31.1-9.4-38.5a5.34,5.34,0,0,1-.1-2.4C204.83,301.23,222,296,229.63,301.63Z" transform="translate(-105.03 -145.03)"/><path class="cls-9" d="M314.2,401.2c4.47,4.7,11.33,4.63,14.48,1.16s2.47-10.09-.3-12c-1.54-1.07-2.47-.38-5.32-1.61-4-1.77-4.77-4.62-6.08-4.39S314.28,387.65,314.2,401.2Z" transform="translate(-105.03 -145.03)"/><path class="cls-17" d="M136,192.73c2.6-2.7,4.8-5,5.5-8.6,1-5.3-1.7-11.2-5.7-14.5-6-5-10.9-1-16.9-6.4-4.5-4.1-5.9-10.3-6.2-11.4a27.84,27.84,0,0,1-.5-5.9,29.13,29.13,0,0,0-5.9,10.7c-2.1,6.8-1.2,12.6-.5,17.1a58.28,58.28,0,0,0,2.6,10c2.3,6.7,3.3,10.2,5.7,12.4a14.35,14.35,0,0,0,11.6,3.3C130.33,198.63,133.13,195.73,136,192.73Z" transform="translate(-105.03 -145.03)"/><path class="cls-18" d="M130.83,196.63c2.2-1.8,4.1-3.3,5-5.9,1.3-3.9-.1-8.6-2.7-11.5-3.9-4.4-8-1.9-11.9-6.6-2.9-3.6-3.3-8.4-3.4-9.3a19,19,0,0,1,.3-4.5,22.38,22.38,0,0,0-5.5,7.5c-2.3,4.9-2.2,9.4-2.2,12.9a35.52,35.52,0,0,0,.9,7.8c1,5.3,1.3,8,2.9,9.9a10.92,10.92,0,0,0,8.3,3.7C126,200.53,128.33,198.63,130.83,196.63Z" transform="translate(-105.03 -145.03)"/><path class="cls-19" d="M131,196.13a8.9,8.9,0,0,0,1.9-4.6A8.22,8.22,0,0,0,129,185c-3.3-1.9-5.3.4-8.5-1.7a11.18,11.18,0,0,1-3.9-5,14.14,14.14,0,0,1-.7-2.8,14.56,14.56,0,0,0-1.9,5.6,18.45,18.45,0,0,0,1.2,8.3,29.7,29.7,0,0,0,2.1,4.6c1.7,3.1,2.4,4.7,3.7,5.5a6.94,6.94,0,0,0,5.8.6C128.83,199.53,129.93,197.83,131,196.13Z" transform="translate(-105.03 -145.03)"/></g></g></g></svg>