<svg xmlns="http://www.w3.org/2000/svg" xmlns:xlink="http://www.w3.org/1999/xlink" viewBox="0 0 427.63 479.7"><defs><style>.cls-1,.cls-11,.cls-12{fill:none;}.cls-2{fill:#131311;}.cls-3{clip-path:url(#clip-path);}.cls-4{fill:#002e4a;}.cls-5{fill:#1a1a1a;}.cls-6{fill:#fff;}.cls-7{fill:#662d91;}.cls-8{fill:#150a00;}.cls-9{fill:#130c42;}.cls-10{fill:#6a3813;}.cls-11,.cls-12{stroke:#002e4a;stroke-miterlimit:10;}.cls-11{stroke-width:2px;}.cls-12{stroke-width:3px;}.cls-13{fill:#1b1464;}</style><clipPath id="clip-path" transform="translate(-78.01 -74.86)"><rect class="cls-1" width="553.14" height="553.14"/></clipPath></defs><g id="Capa_2" data-name="Capa 2"><g id="Capa_1-2" data-name="Capa 1"><path class="cls-2" d="M291.64,552.33l30.25.33q-.67-7.24-1.36-14.49a175.52,175.52,0,0,1-22.41-.72c-10.47-1-15.46-2.45-17.82.48-2.21,2.75-1.42,8.53,2.14,11.88A11,11,0,0,0,291.64,552.33Z" transform="translate(-78.01 -74.86)"/><path class="cls-2" d="M349,541.25c11.38-8.34,32.89-.63,40,2.2-.12,3.7-.23,7.41-.35,11.11l-39.92-.95c-1-.25-5-1.34-5.71-4C342.19,546.23,347,542.68,349,541.25Z" transform="translate(-78.01 -74.86)"/><g class="cls-3"><path class="cls-4" d="M283,255.51c1.54.08.88-7.82,5.35-14,4.67-6.41,13.35-8.68,50.81-8.15,20.44.28,29.45,8.93,43,3.59a37.71,37.71,0,0,0,12.15-7.89,22.41,22.41,0,0,0-3.17-9.47c-7.49-12-25.46-12.74-62.65-12.74-60.72,0-68.94,2-69.16,4.34-.18,2,6,2.12,11.93,7.93C284.45,232.07,280.37,255.37,283,255.51Z" transform="translate(-78.01 -74.86)"/><path class="cls-5" d="M289.21,102.72c-2.08,8.42.15,12.58,2.29,31.46s.49,18.48,2.59,23.26c5.37,12.43,18.33,17.77,29.38,22.35,13,5.34,33.36,13.79,48.77,4,7.67-4.79,10.8-12,14.43-20.94,4.27-10.21,14.94-36.22,3.64-58.3-15.88-31.28-73.39-38.34-92-18.89A41.35,41.35,0,0,0,289.21,102.72Z" transform="translate(-78.01 -74.86)"/><path class="cls-6" d="M296,131.41c-1.07,3.55-8.38,30.76,7.58,46.42,6.65,6.52,15.56,9.25,18.8,10.26a54,54,0,0,0,16.72,2.35c-2.24,7.94-4.38,15.86-6.6,23.9a16.39,16.39,0,0,1-2.66,3.58,9.45,9.45,0,0,1-11,1.78,29.23,29.23,0,0,0,52.46,9.07l-1.56-6c-2.13-.2-6.63-1-9.57-4.48-1.45-1.74-3.06-4.82-2.14-14a71.88,71.88,0,0,1,6.62-23.38l.72-1.5h0c5.89-11.81,10.13-10.93,12.55-19.9,4.44-16.17-6-31.59-9.17-36.44-3.85-5.87-12.2-18.74-23.16-18.59-6.95.06-9.52,5.31-19.51,5.24-7.15,0-8.6-2.76-13-2C302.14,109.48,297.05,127.75,296,131.41Z" transform="translate(-78.01 -74.86)"/><path class="cls-7" d="M387.61,252.6c19.83,10.18,37.8,11,53.15,11.66a180.48,180.48,0,0,0,48.89-4.59V237.81a174.7,174.7,0,0,1-49.9.95c-9.64-1.24-18.77-3.38-37-7.66-13.74-3.21-25.08-6.16-33-8.3-3.2,3.1-6.4,6.1-9.5,9.2A102.23,102.23,0,0,0,387.61,252.6Z" transform="translate(-78.01 -74.86)"/><path class="cls-6" d="M485.33,260.42c7.32,2.33,14.72.11,18.1-5s2.62-13.54-.95-15.68c-2.5-1.5-5,.82-7.13-1-2.84-2.33-.22-7.74-3.33-10a4,4,0,0,0-4-.47c-1.87,1-1.46,3.94-1.69,12.35,0,.54-.21,4.37-.59,12C485.59,256,485.43,258.64,485.33,260.42Z" transform="translate(-78.01 -74.86)"/><path class="cls-7" d="M369.71,222.7c10.9,6.6,21.8,13.2,32.8,19.8-.4,2.6-.9,6.3-1.4,11-.9,8.8-1.6,21.3.2,45.2,1.5,19.6-1.1,39.5,1.5,59,.1.9.5,3.5-1,5.2-3,3.2-10.8.4-13.4-.4-26.1-8.6-80.9-5.7-89.8-2.7-.6.2-2.6,1-3.9,0-2.23-1.71-.88-7.18-.6-8.4,1.77-7.73,4.65-43.58,8.24-97.36a316,316,0,0,0-55.13,25.19c-28.51,16.49-44.66,31.77-53.41,26.06-5.34-3.47-6.18-13.63-3.57-20.91,5.08-14.15,21.1-11.63,50.33-27,27.16-14.3,32.64-26.76,60.36-34.22a126.21,126.21,0,0,1,17.88-3.45c1.5,1.61,13.4,13.7,30.8,12A36,36,0,0,0,369.71,222.7Z" transform="translate(-78.01 -74.86)"/><path class="cls-6" d="M245,146.5a8.26,8.26,0,0,0,4-4.4c.3-.8.9-2.7-.1-4.1s-3.2-1.4-5-1.4a6.84,6.84,0,0,0-4.3,1,5.16,5.16,0,0,0-2.2,4.1C237.62,144.2,240.72,146.7,245,146.5Z" transform="translate(-78.01 -74.86)"/><path class="cls-8" d="M191.84,533.43c-6-2-9.1-3-12-2-5,1.9-5.9,9.9-6,11.3a19.71,19.71,0,0,0,1.4,9.5h47.6v-18.5a29.05,29.05,0,0,0-4.9-.8c-9.5-.6-13.5,4.4-21.1,2.4C194.94,534.83,195.44,534.63,191.84,533.43Z" transform="translate(-78.01 -74.86)"/><path class="cls-8" d="M257.44,533.33c-6.6-2.2-9.9-3.3-13-2.1-5.6,2.1-6.4,10.9-6.5,12.2a19.84,19.84,0,0,0,1.3,8.7c17.5.1,34.9.1,52.4.2v-1.6c.1-5.7,0-11.3-.2-16.7a22.67,22.67,0,0,0-5.6-1.1c-9.9-.9-14.5,4.8-22.9,2.6C260.84,534.93,261.34,534.63,257.44,533.33Z" transform="translate(-78.01 -74.86)"/><path class="cls-9" d="M292.94,347.63c-1.3,131.3-1.6,184.7-1.3,185.7,0,0,.3.8,0,1s-.7,0-.8,0c-2.1-.8-25.4,7.6-29.6,2.6-.8-.9-1.8-3.4-3.4-3.3-.5,0-1.1.3-1.4,0s.1-1.2.2-1.4c3.21-6.5.9-34.4.9-34.4-.9-11.4-1-35.2-1.1-82.9,0,0-.1-21.6-10.4-32.4-.7-.8-2.8-2.9-5.4-2.8-2.29.1-4,2-4.6,2.6-9.4,10.4-10.4,62.8-10.4,62.8-.2,10.2-.9,24.4-2.29,52.7,0,0-1.61,33.4-.11,37.3.11.2.5,1.1.11,1.6s-1.61.1-1.9,0c-4.4-1.3-27.5-.1-30.71.6-.2,0-1,.3-1.39-.1s0-1.3,0-1.3c.39-1.2,1.6-52.8,4-184.8C226.54,349.93,259.74,348.83,292.94,347.63Z" transform="translate(-78.01 -74.86)"/><path class="cls-4" d="M205.93,220.46A77,77,0,0,1,176.7,225c-4-.18-15.37-1-47-15.69-8-3.7-19.1-9.11-32.08-16.39l-9.74,18.53a623.88,623.88,0,0,0,65.82,32.79s37.69,16.06,58.06,7.76a5.56,5.56,0,0,0,2-1.33C219.47,244.63,209.61,226.76,205.93,220.46Z" transform="translate(-78.01 -74.86)"/><g id="Capa_2-2" data-name="Capa 2"><path class="cls-4" d="M287.54,233.93a171,171,0,0,1,.8,36.5c-2.9,31.2,12.9,62.8,9,78.2-.4,1.5-1.4,5.8-4.7,7.1-3.1,1.3-6.6-.5-7.5-1-14.9-7.2-73.4,8.2-87.5-.8-1-.7-4-2.5-5.1-6a11.17,11.17,0,0,1,.8-7.8c3.9-9.1,3.8-33.6,3.7-47.8-.1-18.4-2.9-51.8-3-53.5v-1.3c.1-3.1.7-10,5.6-14.1,3.9-3.3,8.9-3.4,11.1-3.5,25.4-.8,32.5-12.6,51.3-8.5,5.3,1.1,15.3,2.9,21.1,10.9A24.74,24.74,0,0,1,287.54,233.93Z" transform="translate(-78.01 -74.86)"/></g><path class="cls-10" d="M142.54,121.73c.8,8.7,4.2,11.9,12.4,29s6.4,17.3,10,21.2c9.1,10,23.1,10.9,35,11.6,14,.9,36,2.3,47.4-11.9,5.7-7,6.3-14.9,6.9-24.5.7-11.1,2.4-39.1-15.4-56.4-25.2-24.5-81.8-12.6-93.2,11.9A39.14,39.14,0,0,0,142.54,121.73Z" transform="translate(-78.01 -74.86)"/><path class="cls-6" d="M156.64,143.63c.2,3.7,2.1,31.8,22.2,41.4,8.4,4,17.7,3.7,21.1,3.6a54.88,54.88,0,0,0,16.5-3.2c.5,8.2,1,16.5,1.5,24.7-.5,2.9-1.6,5.9-4.2,7.7-2.8,1.9-5.4,1-5.7,1.9-.8,2.3,12.8,15.1,28.5,12.5,10.4-1.8,19.1-10,22.8-21a25.11,25.11,0,0,1-12.5-5.4c-12.4-10.5-9.9-32.2-9.2-37.7a14.93,14.93,0,0,0,.2-1.7c1.8-13.1,6-13.6,5.5-22.9-1.1-16.8-15.9-27.9-20.4-31.5-5.5-4.3-17.7-13.8-28-10.1-6.5,2.3-7.4,8.1-16.8,11.3-6.8,2.3-9,.2-13,2.3C155.44,120.83,156.44,139.83,156.64,143.63Z" transform="translate(-78.01 -74.86)"/><circle class="cls-11" cx="134.24" cy="73.17" r="13.6"/><circle class="cls-11" cx="88.24" cy="75.47" r="13.7"/><path class="cls-12" d="M225.74,145.63l17.6-.3" transform="translate(-78.01 -74.86)"/><path class="cls-12" d="M179.94,149.83a21.19,21.19,0,0,1,18.7-.3" transform="translate(-78.01 -74.86)"/><path class="cls-6" d="M79.27,196.22a10.34,10.34,0,0,0,.48,10.7,10.85,10.85,0,0,0,8.08,4.51l9.74-18.53c1.39-2.43,1.56-5,.37-6.42a3.27,3.27,0,0,0-2-1.19,3.62,3.62,0,0,0-2.62,1c-1.88,1.67-1.18,4.25-3.18,5.26l-.45.18a6.64,6.64,0,0,1-4-.26C83.34,191,80.5,194,79.27,196.22Z" transform="translate(-78.01 -74.86)"/><path class="cls-6" d="M191.43,292.91c.22,2.15.5,4.84,2.38,7.13,3.06,3.72,9.62,5.4,13.54,2.61,4.93-3.5,2.9-12.08.48-16.4-.9-1.6-3.35-6-7.61-6.17s-7.09,3.86-7.36,4.27C190.86,287.32,191.19,290.51,191.43,292.91Z" transform="translate(-78.01 -74.86)"/><path class="cls-13" d="M396.69,364.38q-1.85,42.93-3.68,85.85-2,46.61-4,93.22c-11.7-.7-23.5-1.3-35.2-2,4.9-26.5,20.1-113.7,4.6-140.7-2.3-3.9-8-14-14.9-13.6-6.2.36-10.28,9.14-11.9,12.6-12.35,26.42-11.47,114.06-11.08,138.42q-8.49.29-17.18.47-7.55.17-15,.24,1.44-44,3.63-89.08,2.22-45.42,5.08-89.57a167.83,167.83,0,0,1,65.79-4.2A165.12,165.12,0,0,1,396.69,364.38Z" transform="translate(-78.01 -74.86)"/><path class="cls-6" d="M394.24,230.8c.9,1.1-1.2,5.65-4.81,7.42-4.58,2.26-11.87.17-14.43-5.16a11.36,11.36,0,0,1,0-8.86c5.22-.08,8.18,1.39,9.93,2.8s3,3.21,5.67,3.68C392.61,231,393.74,230.19,394.24,230.8Z" transform="translate(-78.01 -74.86)"/><path class="cls-4" d="M391.15,219.63a15.7,15.7,0,0,1,3.09,11.17c-1.31.32-2.7.6-4.16.83a53.15,53.15,0,0,1-15.56.12,62.43,62.43,0,0,0-13.19-12.21l12.78-5C380.64,212.86,387.35,214.85,391.15,219.63Z" transform="translate(-78.01 -74.86)"/></g></g></g></svg>