<svg xmlns="http://www.w3.org/2000/svg" viewBox="0 0 10.87 13"><defs><style>.cls-1{fill:#fff;}</style></defs><g id="Capa_2" data-name="Capa 2"><g id="Capa_1-2" data-name="Capa 1"><path id="iconmonstr-file-19" class="cls-1" d="M6.37,4.3S7.17,0,4.57,0H1.17a1,1,0,0,0-.8.4,1.08,1.08,0,0,0-.3.7C0,1.8,0,6,.07,11.8a1.12,1.12,0,0,0,.3.8c.2.3.6.3.8.4h8.6a1,1,0,0,0,.8-.4.94.94,0,0,0,.3-.7v-6C10.67,4.8,7.07,4.4,6.37,4.3Zm.2,6H2.27V9.7h4.3Zm2.1-1.7H2.17V8h6.5Zm0-1.5H2.17V6.5h6.5ZM6.77,0a16,16,0,0,1,4,3.8,4.32,4.32,0,0,0-3.3-.6A4,4,0,0,0,6.77,0Z"/></g></g></svg>