<svg xmlns="http://www.w3.org/2000/svg" xmlns:xlink="http://www.w3.org/1999/xlink" viewBox="0 0 7.88 9.42"><defs><style>.cls-1{fill:none;}.cls-2{clip-path:url(#clip-path);}.cls-3{fill:#fff;}</style><clipPath id="clip-path" transform="translate(-3.21 -2.44)"><rect class="cls-1" width="14.3" height="14.3"/></clipPath></defs><g id="Capa_2" data-name="Capa 2"><g id="Capa_1-2" data-name="Capa 1"><g class="cls-2"><path id="iconmonstr-file-19" class="cls-3" d="M7.83,5.56s.58-3.12-1.31-3.12H4.06a.7.7,0,0,0-.58.29.8.8,0,0,0-.22.51c-.07.5-.07,3.55,0,7.75a.82.82,0,0,0,.22.58c.15.22.44.22.58.29h6.23a.68.68,0,0,0,.58-.29.67.67,0,0,0,.22-.51V6.72C11,5.92,8.34,5.63,7.83,5.56ZM8,9.9H4.86V9.47H8ZM9.5,8.67H4.79V8.24H9.5Zm0-1.09H4.79V7.15H9.5ZM8.12,2.44A11.64,11.64,0,0,1,11,5.19a3.14,3.14,0,0,0-2.39-.43,2.88,2.88,0,0,0-.51-2.32Z" transform="translate(-3.21 -2.44)"/></g></g></g></svg>