<svg xmlns="http://www.w3.org/2000/svg" xmlns:xlink="http://www.w3.org/1999/xlink" viewBox="0 0 10.8 10.6"><defs><style>.cls-1{fill:none;}.cls-2{clip-path:url(#clip-path);}.cls-3{fill:#fff;}</style><clipPath id="clip-path" transform="translate(-1.8 -1.8)"><rect class="cls-1" width="14.3" height="14.3"/></clipPath></defs><g id="Capa_2" data-name="Capa 2"><g id="Capa_1-2" data-name="Capa 1"><g class="cls-2"><path id="iconmonstr-paper-plane-1" class="cls-3" d="M12.5,1.8a.31.31,0,0,1,.1.2c0,.4-1.8,6.8-2.5,9.3a.32.32,0,0,1-.3.3.37.37,0,0,1-.5-.2c-1.1-1-2.2-1.9-3.2-2.9C7.3,7.2,8.5,5.9,9.8,4.6L4.9,8c-1-.2-2-.5-3-.7a.1.1,0,0,1-.1-.1c0-.1,0-.1.1-.2C7.8,4.1,12.1,1.9,12.4,1.8ZM5.7,9.5v2.7a.22.22,0,0,0,.2.2.37.37,0,0,0,.3-.1c.4-.5.7-1,1.1-1.5C6.7,10.4,6.2,9.9,5.7,9.5Z" transform="translate(-1.8 -1.8)"/></g></g></g></svg>