<svg xmlns="http://www.w3.org/2000/svg" viewBox="0 0 178.99 97.01"><defs><style>.cls-1{font-size:24.1px;}.cls-1,.cls-2,.cls-3,.cls-4{fill:#fd7315;}.cls-1,.cls-3,.cls-4{font-family:Poppins-Light, Poppins;font-weight:300;}.cls-2{stroke:#fd7315;stroke-miterlimit:10;}.cls-3{font-size:63.18px;}.cls-4{font-size:39.66px;}</style></defs><g id="Capa_2" data-name="Capa 2"><g id="Capa_1-2" data-name="Capa 1"><text class="cls-1" transform="translate(8.93 83.42)">Administrador</text><path id="Trazado_4" data-name="Trazado 4" class="cls-2" d="M116.21,36.33c-.7,13.8,14.43,22.29,25.88,16,11.69-6.14,11.8-24.44,0-30.55C131.31,15.61,116.28,23.62,116.21,36.33Zm9.69-7.71a22.8,22.8,0,0,0-1.77,7.71h-6.28c.39-4.2,1.71-7.52,4-9.88a9.61,9.61,0,0,0,2.44,1.42c.56.24,1.09.48,1.65.75ZM129.16,22a25.45,25.45,0,0,0-2.85,5.32,18,18,0,0,1-3.43-1.91A13.27,13.27,0,0,1,129.16,22Zm2.08-.46a7.13,7.13,0,0,1,1.6-.09v7.53a10.34,10.34,0,0,1-2.28-.31c-.92-.19-1.9-.46-2.87-.75a30,30,0,0,1,3.55-6.38Zm1.6,9v5.8h-7.25a18.75,18.75,0,0,1,1.59-7.18,16.5,16.5,0,0,0,5.66,1.38Zm0,7.27v5.88a15.74,15.74,0,0,0-5.52,1.38,17.87,17.87,0,0,1-1.12-3.43,19.06,19.06,0,0,1-.58-3.83Zm-8.73,0a25.64,25.64,0,0,0,1.7,7.77c-2.5,1.25-3.82,2-4,2.1A16.15,16.15,0,0,1,118,37.8Zm8.73,7.3v7.81l-1.6-.09a31.09,31.09,0,0,1-3.55-6.44,24.72,24.72,0,0,1,5.15-1.28Zm-6.53,1.84a37.84,37.84,0,0,0,2.95,5.37,19.77,19.77,0,0,1-6.38-3.53,25.14,25.14,0,0,1,3.43-1.84Zm9.62,5.88-1.57.09V45.15a18.14,18.14,0,0,1,5.15,1.14,32.68,32.68,0,0,1-3.58,6.44Zm8.39-4A11.66,11.66,0,0,1,138,52.14a16.23,16.23,0,0,0,1.32-2c.45-.73,1.21-2.71,1.48-3.27a26.25,26.25,0,0,1,3.48,1.84Zm5-11a15.58,15.58,0,0,1-3.87,9.87c-1.05-.74-2.57-1.39-4-2.2a22.56,22.56,0,0,0,1.84-7.67Zm-7.68,0a20.37,20.37,0,0,1-1.6,7.3,12.68,12.68,0,0,0-2.68-1,8.33,8.33,0,0,0-3-.39V37.8Zm-7.26-7.27A15.58,15.58,0,0,0,140,29.15a20.1,20.1,0,0,1,1.6,7.18h-7.25Zm11-4.08a14.34,14.34,0,0,1,4,9.88h-6.17a20.48,20.48,0,0,0-1.73-7.71,29.59,29.59,0,0,0,3.94-2.17Zm-1-1.09a24.58,24.58,0,0,1-3.39,2,22.33,22.33,0,0,0-3.09-5.52,17.69,17.69,0,0,1,6.44,3.51Zm-8.49-3.87a24.19,24.19,0,0,1,3.68,6.28c-.92.61-2.65,1-5.14,1.16V21.4a5.57,5.57,0,0,1,1.47.09Z"/><text class="cls-3" transform="translate(0 53.7)">Tod</text><text class="cls-4" transform="translate(155.79 54.44)">it</text></g></g></svg>