<svg xmlns="http://www.w3.org/2000/svg" viewBox="0 0 165.54 88.8"><defs><style>.cls-1,.cls-2,.cls-3,.cls-4,.cls-5{isolation:isolate;}.cls-1{font-size:22.45px;}.cls-1,.cls-3,.cls-4,.cls-5,.cls-6{fill:#fd611a;}.cls-1,.cls-3,.cls-4,.cls-5{font-family:Poppins-Regular, Poppins;}.cls-3{font-size:58.89px;}.cls-4{font-size:46.53px;}.cls-5{font-size:31.02px;}</style></defs><g id="Capa_2" data-name="Capa 2"><g id="Capa_1-2" data-name="Capa 1"><text class="cls-1" transform="translate(2.66 75.96)">Administrador</text><g id="Capa_1-2-2" data-name="Capa 1-2"><g class="cls-2"><text class="cls-3" transform="translate(0 49.99)">Tod</text><text class="cls-4" transform="translate(109.35 49.99)"><tspan xml:space="preserve">   </tspan></text><text class="cls-5" transform="translate(146.62 49.99)">it</text><path class="cls-6" d="M111.49,33.15c-.65,12.92,13.51,20.88,24.24,15,11-5.74,11.05-22.88,0-28.6C125.63,13.74,111.56,21.25,111.49,33.15Zm9.07-7.22a21.58,21.58,0,0,0-1.65,7.22H113c.37-3.94,1.61-7,3.74-9.26A8.88,8.88,0,0,0,119,25.23c.52.22,1,.45,1.54.7Zm3.06-6.25a24.11,24.11,0,0,0-2.67,5,17.63,17.63,0,0,1-3.21-1.78A12.28,12.28,0,0,1,123.62,19.68Zm1.95-.43a7.41,7.41,0,0,1,1.49-.09v7.06a10.21,10.21,0,0,1-2.13-.29c-.86-.18-1.78-.43-2.69-.7A28,28,0,0,1,125.57,19.25Zm1.49,8.47v5.43h-6.79a17.67,17.67,0,0,1,1.49-6.72,15.91,15.91,0,0,0,5.3,1.29Zm0,6.81V40a14.7,14.7,0,0,0-5.17,1.3,17.28,17.28,0,0,1-1-3.22,16.66,16.66,0,0,1-.54-3.58Zm-8.17,0a23.92,23.92,0,0,0,1.59,7.27c-2.34,1.17-3.58,1.83-3.74,2a15.07,15.07,0,0,1-3.62-9.23Zm8.17,6.83v7.32l-1.49-.09a29.08,29.08,0,0,1-3.33-6A23.61,23.61,0,0,1,127.06,41.36ZM121,43.08a35.69,35.69,0,0,0,2.76,5,18.41,18.41,0,0,1-6-3.31A23.08,23.08,0,0,1,121,43.08Zm9,5.51-1.47.09V41.41a17,17,0,0,1,4.82,1.07,31.44,31.44,0,0,1-3.35,6Zm7.85-3.78A10.94,10.94,0,0,1,131.93,48a13.57,13.57,0,0,0,1.24-1.85c.42-.68,1.13-2.53,1.39-3.06a25.23,25.23,0,0,1,3.25,1.72Zm4.67-10.28a14.57,14.57,0,0,1-3.62,9.23c-1-.69-2.42-1.3-3.79-2.06a20.93,20.93,0,0,0,1.73-7.17Zm-7.2,0a18.88,18.88,0,0,1-1.5,6.83,11.1,11.1,0,0,0-2.51-.92,7.48,7.48,0,0,0-2.78-.36V34.53Zm-6.79-6.81a14.89,14.89,0,0,0,5.29-1.29,19,19,0,0,1,1.5,6.72h-6.79Zm10.28-3.83a13.51,13.51,0,0,1,3.72,9.26H136.7a19.32,19.32,0,0,0-1.62-7.22,28.16,28.16,0,0,0,3.69-2Zm-1-1a22.42,22.42,0,0,1-3.17,1.88,20.83,20.83,0,0,0-2.89-5.17,16.66,16.66,0,0,1,6,3.28Zm-7.94-3.63a23.17,23.17,0,0,1,3.45,5.88,10.78,10.78,0,0,1-4.82,1.09V19.16a5.35,5.35,0,0,1,1.38.09Z"/></g></g></g></g></svg>