<?xml version="1.0" encoding="utf-8"?>
<!-- Generator: Adobe Illustrator 25.4.1, SVG Export Plug-In . SVG Version: 6.00 Build 0)  -->
<svg version="1.1" id="Capa_1" xmlns="http://www.w3.org/2000/svg" xmlns:xlink="http://www.w3.org/1999/xlink" x="0px" y="0px"
	 viewBox="0 0 165.5 88.8" style="enable-background:new 0 0 165.5 88.8;" xml:space="preserve">
<style type="text/css">
	.st0{fill:#FD611A;}
	.st1{font-family:'Poppins-Regular';}
	.st2{font-size:22.45px;}
	.st3{font-size:58.89px;}
	.st4{font-size:46.53px;}
	.st5{font-size:31.02px;}
</style>
<g id="Capa_2_00000137812028869607951750000000088031840855699887_">
	<g id="Capa_1-2">
		<text transform="matrix(1 0 0 1 2.66 75.96)" class="st0 st1 st2">Administrador</text>
		<g id="Capa_1-2-2">
			<g>
				<text transform="matrix(1 0 0 1 0 49.99)" class="st0 st1 st3">Tod</text>
				<text transform="matrix(1 0 0 1 109.35 49.99)" class="st0 st1 st4">   </text>
				<text transform="matrix(1 0 0 1 146.62 49.99)" class="st0 st1 st5">it</text>
				<path class="st0" d="M111.5,33.2c-0.7,12.9,13.5,20.9,24.2,15c11-5.7,11.1-22.9,0-28.6C125.6,13.7,111.6,21.2,111.5,33.2z
					 M120.6,25.9c-1,2.3-1.5,4.7-1.7,7.2H113c0.4-3.9,1.6-7,3.7-9.3c0.7,0.6,1.4,1,2.3,1.3C119.5,25.4,120,25.7,120.6,25.9
					L120.6,25.9z M123.6,19.7c-1.1,1.6-2,3.2-2.7,5c-1.1-0.5-2.2-1.1-3.2-1.8C119.4,21.3,121.4,20.2,123.6,19.7z M125.6,19.3
					c0.5-0.1,1-0.1,1.5-0.1v7.1c-0.7,0-1.4-0.1-2.1-0.3c-0.9-0.2-1.8-0.4-2.7-0.7C123.1,23.1,124.2,21.1,125.6,19.3z M127.1,27.7
					v5.4h-6.8c0.1-2.3,0.6-4.6,1.5-6.7C123.4,27.2,125.2,27.6,127.1,27.7z M127.1,34.5V40c-1.8,0.1-3.5,0.6-5.2,1.3
					c-0.4-1-0.8-2.1-1-3.2c-0.3-1.2-0.5-2.4-0.5-3.6L127.1,34.5z M118.9,34.5c0.1,2.5,0.7,4.9,1.6,7.3c-2.3,1.2-3.6,1.8-3.7,2
					c-2.2-2.6-3.5-5.8-3.6-9.2L118.9,34.5z M127.1,41.4v7.3l-1.5-0.1c-1.3-1.9-2.5-3.9-3.3-6C123.8,42,125.4,41.6,127.1,41.4z
					 M121,43.1c0.8,1.7,1.7,3.4,2.8,5c-2.2-0.7-4.2-1.8-6-3.3C118.8,44.1,119.9,43.6,121,43.1z M130,48.6l-1.5,0.1v-7.3
					c1.7,0.1,3.3,0.5,4.8,1.1c-0.9,2.1-2,4.1-3.4,6V48.6z M137.9,44.8c-1.6,1.7-3.7,2.8-5.9,3.2c0.5-0.6,0.9-1.2,1.2-1.8
					c0.4-0.7,1.1-2.5,1.4-3.1C135.7,43.6,136.8,44.2,137.9,44.8L137.9,44.8z M142.5,34.5c-0.1,3.4-1.4,6.7-3.6,9.2
					c-1-0.7-2.4-1.3-3.8-2.1c1-2.3,1.6-4.7,1.7-7.2H142.5z M135.3,34.5c-0.1,2.4-0.6,4.7-1.5,6.8c-0.8-0.4-1.6-0.7-2.5-0.9
					c-0.9-0.3-1.8-0.4-2.8-0.4v-5.6L135.3,34.5z M128.5,27.7c1.8-0.1,3.6-0.5,5.3-1.3c0.9,2.1,1.4,4.4,1.5,6.7h-6.8V27.7z
					 M138.8,23.9c2.4,2.5,3.7,5.8,3.7,9.3h-5.8c-0.1-2.5-0.6-4.9-1.6-7.2C136.4,25.4,137.6,24.7,138.8,23.9L138.8,23.9z M137.8,22.9
					c-1,0.7-2.1,1.3-3.2,1.9c-0.7-1.9-1.7-3.6-2.9-5.2C134,20.3,136,21.4,137.8,22.9L137.8,22.9z M129.9,19.3
					c1.4,1.8,2.6,3.8,3.4,5.9c-1.5,0.7-3.2,1.1-4.8,1.1v-7.1C129,19.1,129.4,19.2,129.9,19.3L129.9,19.3z"/>
			</g>
		</g>
	</g>
</g>
</svg>
